<svg width="48" height="48" viewBox="0 0 48 48" xmlns="http://www.w3.org/2000/svg">
  <!-- ATS柜图标 -->
  <rect x="4" y="4" width="40" height="40" rx="2" fill="#9C27B0" stroke="#7B1FA2" stroke-width="2"/>
  
  <!-- 柜门 -->
  <rect x="6" y="6" width="36" height="36" rx="1" fill="#BA68C8" stroke="#8E24AA" stroke-width="1"/>
  
  <!-- 双路输入指示 -->
  <rect x="8" y="10" width="12" height="6" rx="1" fill="#4CAF50" stroke="#388E3C" stroke-width="1"/>
  <text x="14" y="15" text-anchor="middle" font-family="Arial" font-size="5" fill="#FFF">路1</text>
  
  <rect x="28" y="10" width="12" height="6" rx="1" fill="#FF5722" stroke="#D84315" stroke-width="1"/>
  <text x="34" y="15" text-anchor="middle" font-family="Arial" font-size="5" fill="#FFF">路2</text>
  
  <!-- 切换开关 -->
  <rect x="18" y="20" width="12" height="8" rx="2" fill="#424242" stroke="#212121" stroke-width="1"/>
  <circle cx="24" cy="24" r="3" fill="#FFF" stroke="#333" stroke-width="1"/>
  
  <!-- 切换指示箭头 -->
  <polygon points="20,24 16,20 16,28" fill="#4CAF50"/>
  <polygon points="28,24 32,20 32,28" fill="#666"/>
  
  <!-- 自动/手动模式指示 -->
  <rect x="10" y="32" width="8" height="4" rx="1" fill="#2196F3" stroke="#1976D2" stroke-width="1"/>
  <text x="14" y="35" text-anchor="middle" font-family="Arial" font-size="4" fill="#FFF">AUTO</text>
  
  <rect x="30" y="32" width="8" height="4" rx="1" fill="#666" stroke="#424242" stroke-width="1"/>
  <text x="34" y="35" text-anchor="middle" font-family="Arial" font-size="4" fill="#FFF">MAN</text>
  
  <!-- 输出指示 -->
  <rect x="20" y="38" width="8" height="4" rx="1" fill="#4CAF50" stroke="#388E3C" stroke-width="1"/>
  <text x="24" y="41" text-anchor="middle" font-family="Arial" font-size="4" fill="#FFF">OUT</text>
  
  <!-- ATS标识 -->
  <text x="24" y="8" text-anchor="middle" font-family="Arial" font-size="6" fill="#FFF" font-weight="bold">ATS</text>
</svg>