<svg width="48" height="48" viewBox="0 0 48 48" xmlns="http://www.w3.org/2000/svg">
  <!-- 直流分配柜图标 -->
  <rect x="4" y="4" width="40" height="40" rx="2" fill="#FF9800" stroke="#F57C00" stroke-width="2"/>
  
  <!-- 柜门 -->
  <rect x="6" y="6" width="36" height="36" rx="1" fill="#FFB74D" stroke="#FB8C00" stroke-width="1"/>
  
  <!-- 直流标识 -->
  <text x="24" y="14" text-anchor="middle" font-family="Arial" font-size="8" fill="#FFF" font-weight="bold">DC</text>
  
  <!-- 正负极标识 -->
  <rect x="8" y="18" width="6" height="2" fill="#F44336"/>
  <text x="11" y="16" text-anchor="middle" font-family="Arial" font-size="6" fill="#F44336" font-weight="bold">+</text>
  
  <rect x="34" y="18" width="6" height="2" fill="#2196F3"/>
  <text x="37" y="16" text-anchor="middle" font-family="Arial" font-size="6" fill="#2196F3" font-weight="bold">-</text>
  
  <!-- 直流断路器 -->
  <rect x="8" y="22" width="4" height="6" rx="1" fill="#424242" stroke="#212121" stroke-width="1"/>
  <rect x="14" y="22" width="4" height="6" rx="1" fill="#424242" stroke="#212121" stroke-width="1"/>
  <rect x="20" y="22" width="4" height="6" rx="1" fill="#424242" stroke="#212121" stroke-width="1"/>
  <rect x="26" y="22" width="4" height="6" rx="1" fill="#424242" stroke="#212121" stroke-width="1"/>
  <rect x="32" y="22" width="4" height="6" rx="1" fill="#424242" stroke="#212121" stroke-width="1"/>
  <rect x="38" y="22" width="4" height="6" rx="1" fill="#424242" stroke="#212121" stroke-width="1"/>
  
  <!-- 开关状态指示 -->
  <rect x="9" y="20" width="2" height="2" fill="#4CAF50"/>
  <rect x="15" y="20" width="2" height="2" fill="#4CAF50"/>
  <rect x="21" y="20" width="2" height="2" fill="#4CAF50"/>
  <rect x="27" y="20" width="2" height="2" fill="#FF5722"/>
  <rect x="33" y="20" width="2" height="2" fill="#4CAF50"/>
  <rect x="39" y="20" width="2" height="2" fill="#4CAF50"/>
  
  <!-- 直流电压表 -->
  <rect x="10" y="32" width="8" height="6" rx="1" fill="#000" stroke="#333" stroke-width="1"/>
  <text x="14" y="36" text-anchor="middle" font-family="Arial" font-size="5" fill="#0F0">48V</text>
  
  <!-- 直流电流表 -->
  <rect x="30" y="32" width="8" height="6" rx="1" fill="#000" stroke="#333" stroke-width="1"/>
  <text x="34" y="36" text-anchor="middle" font-family="Arial" font-size="5" fill="#0F0">25A</text>
  
  <!-- 输出端子 -->
  <rect x="8" y="40" width="2" height="2" fill="#F44336"/>
  <rect x="12" y="40" width="2" height="2" fill="#2196F3"/>
  <rect x="16" y="40" width="2" height="2" fill="#F44336"/>
  <rect x="20" y="40" width="2" height="2" fill="#2196F3"/>
  <rect x="24" y="40" width="2" height="2" fill="#F44336"/>
  <rect x="28" y="40" width="2" height="2" fill="#2196F3"/>
  <rect x="32" y="40" width="2" height="2" fill="#F44336"/>
  <rect x="36" y="40" width="2" height="2" fill="#2196F3"/>
</svg>