<svg width="48" height="48" viewBox="0 0 48 48" xmlns="http://www.w3.org/2000/svg">
  <!-- 高压配电柜图标 -->
  <rect x="4" y="4" width="40" height="40" rx="2" fill="#FF5722" stroke="#D84315" stroke-width="2"/>
  
  <!-- 柜门 -->
  <rect x="6" y="6" width="36" height="36" rx="1" fill="#FF7043" stroke="#E64A19" stroke-width="1"/>
  
  <!-- 高压警示标志 -->
  <polygon points="24,10 28,18 20,18" fill="#FFEB3B" stroke="#F57F17" stroke-width="1"/>
  <text x="24" y="16" text-anchor="middle" font-family="Arial" font-size="8" fill="#000" font-weight="bold">!</text>
  
  <!-- 开关设备 -->
  <rect x="10" y="22" width="8" height="6" rx="1" fill="#424242" stroke="#212121" stroke-width="1"/>
  <rect x="20" y="22" width="8" height="6" rx="1" fill="#424242" stroke="#212121" stroke-width="1"/>
  <rect x="30" y="22" width="8" height="6" rx="1" fill="#424242" stroke="#212121" stroke-width="1"/>
  
  <!-- 指示灯 -->
  <circle cx="14" cy="32" r="2" fill="#F44336"/>
  <circle cx="24" cy="32" r="2" fill="#4CAF50"/>
  <circle cx="34" cy="32" r="2" fill="#FF9800"/>
  
  <!-- 接线端子 -->
  <rect x="8" y="38" width="4" height="2" fill="#795548"/>
  <rect x="14" y="38" width="4" height="2" fill="#795548"/>
  <rect x="20" y="38" width="4" height="2" fill="#795548"/>
  <rect x="26" y="38" width="4" height="2" fill="#795548"/>
  <rect x="32" y="38" width="4" height="2" fill="#795548"/>
  <rect x="38" y="38" width="4" height="2" fill="#795548"/>
  
  <!-- 电压等级标识 -->
  <text x="24" y="20" text-anchor="middle" font-family="Arial" font-size="6" fill="#FFF" font-weight="bold">HV</text>
</svg>